<?xml version="1.0" standalone="no"?>
<!DOCTYPE svg PUBLIC "-//W3C//DTD SVG 20010904//EN"
 "http://www.w3.org/TR/2001/REC-SVG-20010904/DTD/svg10.dtd">
<svg version="1.0" xmlns="http://www.w3.org/2000/svg"
 width="40px" height="40px" viewBox="0 0 512.000000 512.000000"
 preserveAspectRatio="xMidYMid meet">

<g transform="translate(0.000000,512.000000) scale(0.100000,-0.100000)"
fill="#e80070" stroke="none">
<path d="M866 3829 c-62 -15 -153 -68 -197 -116 -22 -24 -55 -74 -72 -111
l-32 -67 0 -1016 0 -1015 37 -76 c45 -91 103 -147 196 -191 l67 -32 1049 -5
1049 -5 42 -70 c113 -185 286 -316 500 -377 114 -32 315 -32 430 0 292 83 514
305 597 597 30 105 32 315 4 415 -53 193 -163 358 -311 468 l-60 44 -5 632 -5
631 -32 67 c-44 93 -100 151 -191 196 l-76 37 -1475 2 c-869 1 -1492 -3 -1515
-8z m2968 -161 c55 -16 138 -99 154 -154 7 -23 12 -85 12 -138 l0 -96 -1640 0
-1640 0 0 96 c0 53 5 115 12 138 15 51 99 137 148 153 53 17 2898 17 2954 1z
m166 -708 l0 -160 -1640 0 -1640 0 0 160 0 160 1640 0 1640 0 0 -160z m0 -464
l0 -143 -68 19 c-198 56 -438 24 -632 -85 -102 -57 -250 -205 -307 -307 -100
-178 -133 -378 -97 -582 l7 -38 -988 0 c-746 0 -998 3 -1029 12 -55 16 -138
99 -154 154 -9 30 -12 186 -12 578 l0 536 1640 0 1640 0 0 -144z m-142 -272
c240 -49 430 -221 509 -459 23 -69 27 -97 27 -205 0 -109 -4 -136 -27 -205
-36 -108 -89 -195 -168 -274 -79 -79 -166 -132 -274 -168 -69 -23 -96 -27
-205 -27 -108 0 -136 4 -205 27 -238 79 -410 269 -459 509 -20 98 -20 178 0
276 75 366 435 602 802 526z"/>
<path d="M985 2215 c-16 -15 -25 -36 -25 -55 0 -19 9 -40 25 -55 l24 -25 311
0 311 0 24 25 c16 15 25 36 25 55 0 19 -9 40 -25 55 l-24 25 -311 0 -311 0
-24 -25z"/>
<path d="M985 1895 c-16 -15 -25 -36 -25 -55 0 -19 9 -40 25 -55 l24 -25 311
0 311 0 24 25 c16 15 25 36 25 55 0 19 -9 40 -25 55 l-24 25 -311 0 -311 0
-24 -25z"/>
<path d="M3823 1618 l-223 -222 -103 102 c-65 64 -112 102 -125 102 -56 0
-101 -52 -89 -102 4 -13 69 -85 145 -161 123 -122 142 -137 173 -137 31 0 56
22 296 263 237 236 263 266 263 295 0 44 -38 82 -82 82 -28 0 -56 -24 -255
-222z"/>
</g>
</svg>
