<?xml version="1.0" standalone="no"?>
<!DOCTYPE svg PUBLIC "-//W3C//DTD SVG 20010904//EN"
 "http://www.w3.org/TR/2001/REC-SVG-20010904/DTD/svg10.dtd">
<svg version="1.0" xmlns="http://www.w3.org/2000/svg"
 width="30px" height="30px" viewBox="0 0 512.000000 512.000000"
 preserveAspectRatio="xMidYMid meet">

<g transform="translate(0.000000,512.000000) scale(0.100000,-0.100000)"
fill="#e80070" stroke="none">
<path d="M3543 5110 c-26 -10 -63 -66 -63 -93 0 -31 29 -76 60 -92 23 -12 74
-15 267 -15 l238 0 -155 -156 c-85 -85 -339 -336 -563 -556 l-408 -402 -197
196 c-108 108 -207 201 -219 207 -37 19 -78 13 -119 -18 -72 -53 -2003 -1995
-2014 -2025 -31 -84 62 -166 143 -125 12 6 455 444 985 973 l963 961 207 -213
207 -212 45 0 45 0 612 612 612 612 3 -253 3 -253 33 -29 c56 -50 132 -32 161
39 8 20 11 135 9 410 l-3 382 -28 27 -27 28 -388 2 c-218 1 -397 -2 -409 -7z"/>
<path d="M3773 3799 c-17 -5 -41 -21 -52 -35 -21 -26 -21 -33 -21 -869 l0
-842 -77 -6 c-43 -4 -88 -10 -100 -13 l-23 -6 0 589 0 589 -31 30 -30 29 -227
3 c-201 2 -231 1 -262 -15 -19 -10 -40 -29 -47 -43 -10 -19 -13 -202 -13 -807
l0 -783 -36 -55 c-48 -77 -91 -180 -121 -294 -21 -80 -25 -119 -25 -236 -1
-249 62 -439 209 -632 410 -539 1224 -534 1633 9 191 253 253 583 169 889 -24
89 -103 255 -153 324 -45 63 -158 178 -213 218 l-43 30 0 932 c0 924 0 933
-20 958 -12 15 -38 31 -58 37 -45 12 -415 12 -459 -1z m327 -1005 c0 -697 -2
-805 -14 -801 -8 3 -33 11 -55 16 -23 6 -59 16 -81 21 l-40 11 0 779 0 780 95
0 95 0 0 -806z m-800 -284 l0 -549 -32 -17 c-18 -9 -63 -36 -100 -60 l-68 -44
0 610 0 610 100 0 100 0 0 -550z m636 -690 c140 -36 249 -97 358 -199 241
-229 319 -574 200 -890 -77 -205 -261 -388 -469 -466 -349 -132 -732 -18 -961
285 -41 54 -111 208 -129 280 -80 336 57 689 339 874 206 136 431 175 662 116z"/>
<path d="M3714 1741 c-41 -18 -64 -60 -64 -118 0 -49 -2 -54 -27 -64 -95 -34
-169 -106 -203 -197 -30 -78 -25 -195 10 -267 51 -105 145 -169 272 -186 83
-12 110 -26 138 -72 52 -84 -9 -187 -110 -187 -73 0 -130 57 -130 129 0 20
-11 42 -29 63 -25 28 -36 33 -76 33 -39 0 -51 -5 -72 -29 -23 -27 -25 -36 -21
-101 4 -54 12 -84 34 -124 35 -65 109 -134 169 -157 41 -15 45 -20 45 -51 0
-75 54 -122 124 -109 49 9 76 47 76 105 0 44 2 47 45 70 25 13 62 42 81 64
118 131 121 327 6 458 -48 55 -138 98 -225 108 -84 10 -119 28 -141 76 -20 41
-20 66 -2 110 30 72 136 99 194 50 32 -26 47 -58 57 -117 8 -48 54 -88 102
-88 27 0 43 8 70 35 35 35 36 38 30 95 -10 110 -75 215 -162 261 -42 22 -45
27 -45 64 0 60 -18 113 -44 130 -29 20 -76 27 -102 16z"/>
<path d="M2142 2665 c-65 -28 -62 15 -62 -1031 0 -832 2 -950 15 -979 28 -57
43 -60 302 -60 l235 0 29 33 29 32 0 978 0 978 -31 30 -30 29 -227 2 c-181 2
-234 0 -260 -12z m348 -1030 l0 -835 -100 0 -100 0 0 835 0 835 100 0 100 0 0
-835z"/>
<path d="M1325 2428 c-11 -6 -28 -20 -37 -32 -16 -20 -18 -81 -18 -874 l0
-854 28 -28 c38 -38 78 -43 313 -38 213 4 227 7 254 64 22 47 23 1656 1 1709
-26 60 -48 65 -298 65 -143 0 -230 -5 -243 -12z m345 -913 l0 -715 -100 0
-100 0 0 715 0 715 100 0 100 0 0 -715z"/>
<path d="M514 1540 c-12 -4 -31 -21 -43 -36 -21 -26 -21 -33 -21 -429 0 -390
1 -403 20 -428 31 -39 77 -47 285 -47 218 0 258 7 285 53 19 30 20 53 20 420
0 426 -1 431 -60 462 -23 12 -71 15 -247 14 -120 0 -228 -4 -239 -9z m336
-470 l0 -271 -97 3 -98 3 -3 268 -2 267 100 0 100 0 0 -270z"/>
</g>
</svg>
