<?xml version="1.0" standalone="no"?>
<!DOCTYPE svg PUBLIC "-//W3C//DTD SVG 20010904//EN"
 "http://www.w3.org/TR/2001/REC-SVG-20010904/DTD/svg10.dtd">
<svg version="1.0" xmlns="http://www.w3.org/2000/svg"
 width="35px" height="35px" viewBox="0 0 512.000000 512.000000"
 preserveAspectRatio="xMidYMid meet">

<g transform="translate(0.000000,512.000000) scale(0.100000,-0.100000)"
fill="#e80070" stroke="none">
<path d="M185 4935 l-25 -24 0 -1632 c0 -1252 3 -1641 12 -1673 16 -55 99
-138 154 -154 31 -9 249 -12 873 -12 l832 0 24 25 c33 32 33 78 0 110 -22 23
-32 25 -120 25 l-95 0 0 855 0 856 25 24 c23 24 28 25 175 25 147 0 152 -1
175 -25 l25 -24 0 -429 c0 -419 0 -430 21 -456 29 -37 89 -37 118 0 21 26 21
37 21 457 0 308 -3 441 -12 471 -16 55 -99 138 -154 154 -55 16 -333 16 -388
0 -55 -16 -138 -99 -154 -154 -9 -31 -12 -255 -12 -898 l0 -856 -160 0 -160 0
0 616 c0 448 -3 628 -12 656 -17 59 -88 133 -145 152 -58 20 -334 23 -397 4
-55 -16 -138 -99 -154 -154 -9 -31 -12 -203 -12 -658 l0 -616 -135 0 c-131 0
-137 1 -160 25 l-25 24 0 1631 0 1631 -25 24 c-15 16 -36 25 -55 25 -19 0 -40
-9 -55 -25z m990 -2080 l25 -24 0 -616 0 -615 -200 0 -200 0 0 615 0 616 25
24 c23 24 28 25 175 25 147 0 152 -1 175 -25z"/>
<path d="M2505 4935 c-16 -15 -25 -36 -25 -55 0 -19 9 -40 25 -55 24 -24 28
-25 182 -25 l158 0 -382 -382 -383 -383 -223 223 c-204 203 -226 222 -257 222
-32 0 -67 -32 -497 -463 -423 -422 -463 -465 -463 -495 0 -44 38 -82 82 -82
29 0 71 38 455 422 l423 423 223 -223 c204 -203 226 -222 257 -222 32 0 65 31
457 422 l423 423 0 -158 c0 -154 1 -158 25 -182 32 -33 78 -33 110 0 l25 24 0
271 0 271 -25 24 -24 25 -271 0 -271 0 -24 -25z"/>
<path d="M2880 3987 c-49 -16 -133 -102 -148 -153 -9 -30 -12 -168 -12 -497
l0 -456 23 -27 c33 -37 81 -37 114 0 l23 27 0 455 0 455 25 24 c23 24 28 25
175 25 147 0 152 -1 175 -25 l25 -24 0 -361 0 -361 25 -24 c15 -16 36 -25 55
-25 19 0 40 9 55 25 l25 24 0 362 c0 250 -4 374 -12 401 -17 59 -88 133 -145
152 -55 19 -346 21 -403 3z"/>
<path d="M3397 2865 c-576 -94 -1019 -521 -1134 -1093 -24 -120 -24 -384 0
-504 84 -418 354 -775 730 -965 108 -54 289 -110 417 -129 133 -19 314 -15
448 11 542 105 969 534 1079 1085 25 122 24 384 -1 505 -114 549 -517 958
-1061 1076 -122 27 -359 34 -478 14z m463 -174 c464 -106 807 -455 917 -933
23 -101 23 -373 0 -476 -85 -372 -314 -669 -644 -836 -174 -87 -316 -119 -533
-119 -224 -1 -364 32 -555 131 -316 163 -544 465 -621 822 -26 118 -26 362 0
480 76 353 299 650 610 816 135 71 261 112 431 138 68 10 312 -4 395 -23z"/>
<path d="M3428 2545 c-101 -17 -194 -48 -298 -100 -399 -200 -629 -647 -556
-1083 74 -441 390 -769 831 -864 79 -17 324 -17 395 0 228 55 390 144 538 294
88 90 128 144 186 257 153 298 154 638 1 941 -51 103 -86 151 -174 243 -93 97
-172 157 -276 210 -207 104 -428 139 -647 102z m387 -173 c325 -89 554 -320
641 -648 27 -103 26 -312 -3 -419 -87 -320 -318 -551 -638 -638 -107 -29 -316
-30 -419 -3 -386 103 -648 416 -673 805 -16 248 77 490 257 671 132 131 282
211 465 246 94 18 278 11 370 -14z"/>
<path d="M3545 2215 c-21 -20 -25 -34 -25 -84 l0 -60 -53 -24 c-66 -30 -118
-81 -154 -150 -23 -45 -27 -64 -27 -137 0 -69 4 -94 24 -135 52 -107 147 -170
278 -185 116 -13 167 -61 167 -159 0 -47 -5 -64 -27 -93 -37 -48 -89 -72 -146
-65 -77 9 -127 61 -141 147 -14 88 -82 120 -138 64 -23 -23 -25 -31 -20 -83 9
-109 83 -212 184 -258 l53 -24 0 -60 c0 -50 4 -64 25 -84 32 -33 78 -33 110 0
21 20 25 34 25 84 l0 60 53 24 c69 31 123 86 156 156 36 77 36 192 1 266 -52
106 -147 170 -278 185 -116 13 -167 61 -167 160 0 44 5 66 21 86 32 44 68 66
116 71 90 10 162 -50 177 -148 14 -87 83 -118 138 -63 24 24 25 30 19 85 -11
111 -82 210 -183 256 l-53 24 0 60 c0 50 -4 64 -25 84 -15 16 -36 25 -55 25
-19 0 -40 -9 -55 -25z"/>
</g>
</svg>
