<?xml version="1.0" standalone="no"?>
<!DOCTYPE svg PUBLIC "-//W3C//DTD SVG 20010904//EN"
 "http://www.w3.org/TR/2001/REC-SVG-20010904/DTD/svg10.dtd">
<svg version="1.0" xmlns="http://www.w3.org/2000/svg"
 width="30px" height="30px" viewBox="0 0 50.000000 50.000000"
 preserveAspectRatio="xMidYMid meet">

<g transform="translate(0.000000,50.000000) scale(0.100000,-0.100000)"
fill="#e80070" stroke="none">
<path d="M155 456 c-27 -13 -60 -34 -72 -47 -44 -49 -82 -169 -53 -169 6 0 10
12 10 28 1 38 32 102 66 134 81 75 203 76 282 3 l37 -34 -32 -1 c-18 0 -33 -4
-33 -10 0 -5 23 -10 50 -10 l50 0 0 50 c0 28 -4 50 -10 50 -5 0 -10 -14 -10
-32 l0 -32 -27 27 c-70 66 -172 84 -258 43z"/>
<path d="M240 386 c0 -8 -9 -18 -20 -21 -51 -16 -50 -85 2 -104 87 -32 108
-60 69 -95 -30 -27 -73 -18 -91 21 -17 37 -30 42 -30 13 0 -22 41 -70 60 -70
5 0 10 -7 10 -15 0 -8 5 -15 10 -15 6 0 10 7 10 15 0 8 5 15 10 15 20 0 60 49
60 73 0 31 -20 48 -79 67 -33 11 -47 21 -49 36 -7 46 73 61 93 17 11 -26 25
-30 25 -8 0 17 -35 55 -50 55 -5 0 -10 7 -10 15 0 8 -4 15 -10 15 -5 0 -10 -6
-10 -14z"/>
<path d="M460 243 c0 -40 -23 -96 -53 -130 -78 -89 -210 -97 -295 -18 l-37 34
33 1 c17 0 32 5 32 10 0 6 -22 10 -50 10 l-50 0 0 -50 c0 -27 5 -50 10 -50 6
0 10 14 10 32 l0 32 28 -27 c39 -37 110 -67 162 -67 52 0 134 35 167 71 44 49
82 169 53 169 -5 0 -10 -8 -10 -17z"/>
</g>
</svg>
